<?xml version="1.0" encoding="UTF-8"?>
<svg id="katman_1" xmlns="http://www.w3.org/2000/svg" version="1.1" viewBox="0 0 1280 1024">
  <!-- Generator: Adobe Illustrator 30.2.1, SVG Export Plug-In . SVG Version: 2.1.1 Build 1)  -->
  <defs>
    <style>
      .st0 {
        fill: #4887c4;
      }

      .st1 {
        fill: #dde9f8;
      }
    </style>
  </defs>
  <path class="st0" d="M849,596.9c-40.4,132.9-152.8,137.9-152.8,137.9,0,0-78.1,14.4-147.3-50.7-49.7-46.7-56.3-106.2-56-136,0-12.5,5.4-24.5,14.7-32.9,9.7-8.7,24.5-19.8,44.1-27.7,52.1-21.2,67.7-29.7,91.1-56.2,22.5-25.5,36.6-54.6,44.6-82.8,18.6,23.9,97.7,130.6,98.3,204.1.7,83.6-38.7,123.9-107.8,141.6,0,0,77.6-1.2,116.4-67.1,43.3-73.5,2.9-152.1-7.5-173.3-10.4-21.4-70.9-115-95.3-141.3,1.2-25.6-.6-39.3-1.2-58.8,0,0,199,210.2,158.6,343.1Z"/>
  <path class="st1" d="M394.8,474.8c.6.9,36.9,55.6,39.5,86.6-5.2.1-12.6-.7-18.3-1.7-12.4-2.3-21.9-5.5-30.6-11.5-11.1-7.7-23.6-19.4-28.6-45.4-8.6-44.1-14.7-53.8-37-75.1-7.2-6.9-18.1-12.3-28.1-17.2,10.7-3.1,24-2.6,35.9-2.6,63.4,0,113.9,41.5,113.9,99.9s0,16.8-.2,27.3c-7.8-16.4-24.9-48-46.4-60.2Z"/>
  <path class="st1" d="M871.1,600.5c-.2,0-8.1,54.6-47.6,101.9-31.5,37.7-88.1,76.7-161.7,77.7-95.4,1.3-154-62.1-162.6-71.7,0,0-51.2-57.5-54.3-121.9-1.4-8.6-2.4-18.6-2.3-29.8.2-20.5,3.9-37.8,7.8-50.6,0,0,29.7-114.8,124.4-159.3-3.3,1.2-95.8,28.4-122.3,125.4,0,0-18.6-68.3,40.9-120,62.5-54.2,181.6-97.6,174.5-126.4,7.3,29.3,19.3,118.5-21.6,169-41.6,51.3-72.3,70.1-125.9,88.4-53,18.1-47.5,76.3-47.5,76.3,2.1,22.3,10.8,80.9,57.3,131.1,11.4,12.3,38.3,40.6,84.5,55.4,43.7,14,81.1,8.3,98.4,4.6,18.3-4.2,46.4-13,75.3-33.3,10.2-7.2,30-22.4,48.4-47.2,26.4-35.5,34.5-69.5,34.4-69.6Z"/>
</svg>