<?xml version="1.0" encoding="UTF-8"?>
<svg id="katman_1" xmlns="http://www.w3.org/2000/svg" version="1.1" viewBox="70 340 1160 395">
  <!-- Generator: Adobe Illustrator 30.2.1, SVG Export Plug-In . SVG Version: 2.1.1 Build 1)  -->
  <defs>
    <style>
      .st0 {
        fill: #ffffff;
        font-family: Gilroy-Medium, Gilroy-Medium;
        font-size: 52.3px;
        font-weight: 500;
      }

      .st1 {
        fill: #fff;
      }
    </style>
  </defs>
  <path class="st1" d="M427,600c-24.1,79.3-91.2,82.3-91.2,82.3,0,0-46.6,8.6-87.9-30.3-29.7-27.9-33.6-63.4-33.4-81.2,0-7.5,3.2-14.6,8.8-19.6,5.8-5.2,14.6-11.8,26.3-16.6,31.1-12.7,40.4-17.7,54.4-33.5,13.4-15.2,21.9-32.6,26.6-49.4,11.1,14.3,58.3,77.9,58.7,121.8.4,49.9-23.1,73.9-64.3,84.5,0,0,46.3-.7,69.5-40.1,25.8-43.9,1.7-90.8-4.5-103.4-6.2-12.7-42.3-68.6-56.9-84.4.7-15.3-.4-23.4-.7-35.1,0,0,118.8,125.5,94.7,204.8Z"/>
  <path class="st1" d="M859,535.5l32.3,18.8c-8.2,13.8-19.5,24.7-34,32.8-12.9,7.2-27,11.2-42.3,11.9l6.7-25c.2-.7,0-1.4-.4-1.9-.4-.5-1.1-.8-1.7-.8h-22.6c-1.1,0-2,.8-2.2,1.9l-3.5,24.6c-20.6-3.3-38.3-12.3-52.8-27.2-4.9-5-9.2-10.4-12.8-16,1.4-3.9,2.5-8,3.3-12.3,1-5.7,1.2-11,.6-15.8-.6-4.8-1.6-9-3-12.5-1.5-3.5-3.9-7-7.2-10.3-3.2-3.2-6.1-5.7-8.7-7.6,0,0,0,0,0,0,.5-14.5,3.5-27.7,9.2-39.7l19.4-10.2c1.1-.6,1.6-1.8,1.2-2.9-1.2-3.8-2.7-7.5-4.4-10.9.8-.9,1.7-1.8,2.5-2.7,18.7-18.9,42.3-28.4,70.9-28.4s33.1,4,47.7,12.1c14.6,8.1,25.9,19,34.1,32.7l-32.3,18.8c-4.7-8.5-11.4-15.2-20.1-20-8.7-4.8-18.5-7.2-29.4-7.2-18.5,0-33.4,5.8-44.7,17.4-11.3,11.6-17,26.6-17,45.1s5.7,33.2,17,44.8c11.3,11.6,26.2,17.4,44.7,17.4s20.7-2.4,29.5-7.2c8.8-4.8,15.4-11.4,20-19.7Z"/>
  <polygon class="st1" points="943.8 559.4 1024 559.4 1024 595.3 906.3 595.3 906.3 405.1 1022.6 405.1 1022.6 440.9 943.8 440.9 943.8 481.4 1015.8 481.4 1015.8 516.8 943.8 516.8 943.8 559.4"/>
  <polygon class="st1" points="1094.9 595.3 1031 405.1 1071.8 405.1 1118.3 551.3 1164.4 405.1 1205.5 405.1 1141.4 595.3 1094.9 595.3"/>
  <path class="st1" d="M1199,611.1v71.3H487.9v-71.3h301.6l-1,6.9c0,.6,0,1.3.5,1.7.4.5,1,.8,1.6.8h17c1,0,1.8-.7,2.1-1.6l2.1-7.7h387.2Z"/>
  <polygon class="st1" points="816.9 575.6 810.5 599.1 807.3 611.1 805.9 616.1 793.2 616.1 793.9 611.1 795.7 598.3 799 575.6 816.9 575.6"/>
  <g>
    <g>
      <path class="st1" d="M578.8,391.2c5.6,0,10.9-2.1,15.8-6.2,4.9-4.2,7.8-9.1,8.8-14.9,1-5.6-.2-10.5-3.6-14.7-3.4-4.2-7.9-6.3-13.7-6.3s-11.1,2-16,6.1c-4.9,4.1-7.8,9-8.8,14.8-1,5.8.2,10.8,3.7,14.9,3.4,4.2,8.1,6.2,13.9,6.2Z"/>
      <polygon class="st1" points="524.7 595.3 562.2 595.3 595.1 405.1 557.6 405.1 524.7 595.3"/>
    </g>
    <path class="st1" d="M724.7,527c.5,4.4.3,9.2-.6,14.4-.4,2.6-1,5.1-1.7,7.5-3.9,13.4-11.9,24.4-23.7,32.7-14.1,10-31.3,15-51.1,15s-33-4.1-43.9-12.1c-10.4-7.7-17-18.1-19.9-31.1l30.9-16.4c5,18.5,18.6,27.9,40.4,27.9s19.5-2.1,25.5-6.1c6.1-4.2,9.8-9.6,10.9-16,1.3-7.7-1.1-13.8-7.3-18.1-5.6-3.9-15.6-8-30.6-12.4-8-2.5-14.7-5-20-7.5-5.2-2.4-10.4-5.7-15.4-9.9-4.7-3.9-8-8.9-9.8-15-1.8-6.1-2-13.4-.6-21.7,2.9-16.5,11.1-29.8,24.5-39.6,13.5-9.9,28.8-14.9,45.4-14.9s27.3,3.6,37.2,10.8c7.7,5.5,13.6,12.9,17.8,21.8.9,2,1.8,4.1,2.5,6.3l-11.1,5.8-19.1,10c-5.5-15.5-16.8-23.4-33.6-23.4s-15.2,1.9-20.7,5.7c-5.6,3.9-9,9.1-10.1,15.3-1.2,6.9.8,12.5,5.8,16.8,4.6,4,13.6,8.1,27.4,12.6,5.5,1.8,9.6,3.2,12.4,4.2,2.7,1,6.5,2.5,11.3,4.6,4.6,2,8.1,3.9,10.5,5.6.9.7,1.8,1.4,2.8,2.2,1.6,1.4,3.4,3,5.3,4.9,2.8,2.8,4.9,5.8,6.1,8.7,1.2,3,2.1,6.8,2.7,11.2Z"/>
    <path class="st1" d="M155.9,527.1c.4.5,22,33.2,23.6,51.7-3.1,0-7.5-.4-10.9-1-7.4-1.3-13.1-3.3-18.3-6.9-6.6-4.6-14.1-11.6-17.1-27.1-5.1-26.3-8.8-32.1-22.1-44.8-4.3-4.1-10.8-7.3-16.7-10.3,6.4-1.8,14.3-1.6,21.4-1.6,37.8,0,68,24.8,68,59.6s0,10-.1,16.3c-4.7-9.8-14.9-28.6-27.7-35.9Z"/>
    <path class="st1" d="M440.2,602.1c-.1,0-4.8,32.6-28.4,60.8-18.8,22.5-52.6,45.8-96.5,46.4-56.9.8-91.9-37.1-97-42.8,0,0-30.5-34.3-32.4-72.8-.8-5.1-1.4-11.1-1.4-17.8,0-12.2,2.3-22.5,4.6-30.2,0,0,17.7-68.5,74.2-95.1-2,.7-57.1,17-73,74.8,0,0-11.1-40.8,24.4-71.6,37.3-32.3,108.4-58.2,104.1-75.4,4.4,17.5,11.5,70.7-12.9,100.9-24.8,30.6-43.2,41.9-75.1,52.8-31.6,10.8-28.3,45.5-28.3,45.5,1.3,13.3,6.5,48.3,34.2,78.2,6.8,7.3,22.9,24.3,50.4,33.1,26.1,8.3,48.4,5,58.7,2.7,10.9-2.5,27.7-7.8,45-19.9,6.1-4.3,17.9-13.4,28.9-28.2,15.8-21.2,20.6-41.5,20.5-41.5Z"/>
    <text class="st0" transform="translate(502.1 664.9)"><tspan x="0" y="0">Arıtma ve Çevre Teknolojileri</tspan></text>
  </g>
</svg>